<svg width="1440" height="11053" viewBox="0 0 1440 11053" fill="none" xmlns="http://www.w3.org/2000/svg">
<g clip-path="url(#clip0_289_32)">
<rect width="1440" height="11053" fill="white"/>
<path opacity="0.1" d="M1710.11 9663.2C1702.45 9672.45 1594.03 9532.69 1422.69 9574.67C1251.35 9616.65 1309.66 9715.71 1204.27 9770.24C1098.88 9824.77 1014.94 9744.15 919.219 9794.12C823.496 9844.1 801.072 9968.53 706.217 10008.3C611.362 10048 549.811 9946.77 446.696 10001.4C343.581 10056 390.732 10131.8 266.383 10194.1C142.035 10256.5 70.3884 10171.7 -48.9576 10259.9C-168.304 10348.1 -160.331 10579.2 -160.331 10579.2" stroke="#4C40F7" stroke-width="15"/>
<path opacity="0.1" d="M1710.11 10183.2C1702.45 10192.5 1594.03 10052.7 1422.69 10094.7C1251.35 10136.7 1309.66 10235.7 1204.27 10290.2C1098.88 10344.8 1014.94 10264.1 919.219 10314.1C823.496 10364.1 801.072 10488.5 706.217 10528.3C611.362 10568 549.811 10466.8 446.696 10521.4C343.581 10576 390.732 10651.8 266.383 10714.1C142.035 10776.5 70.3884 10691.7 -48.9576 10779.9C-168.304 10868.1 -160.331 11099.2 -160.331 11099.2" stroke="#4C40F7" stroke-width="15"/>
<path d="M-105.11 7082.6C-105.11 7082.6 -22.61 7050.11 74.8901 7141.6C140.29 7202.97 140.89 7245.7 164.151 7349.75C192.651 7477.24 279.469 7666.77 495.89 7575.6C611.774 7526.79 601.99 7659.26 532.89 7790.6C489.096 7873.84 399.031 7964.97 375.89 7982.6C217.107 8103.59 -17.7769 8090.88 -106.11 8067.6C-194.104 8044.41 -126.103 7087.1 -105.11 7082.6Z" fill="#4C40F7"/>
<path fill-rule="evenodd" clip-rule="evenodd" d="M1437.31 6339.53C1575.62 6326.6 1725.61 6362.36 1817.57 6466.43C1906.16 6566.69 1886.6 6712.72 1885.25 6846.48C1883.92 6978.15 1900.16 7122.97 1809.96 7218.93C1718.15 7316.6 1569.58 7344.95 1437.31 7323.01C1321.26 7303.75 1250.76 7199.09 1170.76 7112.89C1095.53 7031.82 1004.29 6956.66 995.063 6846.48C985.245 6729.19 1044.7 6620.15 1122.09 6531.44C1206.14 6435.09 1309.96 6351.43 1437.31 6339.53Z" fill="#FFCC00"/>
<path opacity="0.1" d="M1710.11 4711.2C1702.45 4720.45 1594.03 4580.69 1422.69 4622.67C1251.35 4664.65 1309.66 4763.71 1204.27 4818.24C1098.88 4872.77 1014.94 4792.15 919.219 4842.12C823.496 4892.1 801.072 5016.53 706.217 5056.27C611.362 5096 549.811 4994.77 446.696 5049.36C343.581 5103.96 390.732 5179.78 266.383 5242.15C142.035 5304.51 70.3884 5219.67 -48.9576 5307.89C-168.304 5396.1 -160.331 5627.17 -160.331 5627.17" stroke="#4C40F7" stroke-width="15"/>
<path opacity="0.1" d="M1710.11 5231.2C1702.45 5240.45 1594.03 5100.69 1422.69 5142.67C1251.35 5184.65 1309.66 5283.71 1204.27 5338.24C1098.88 5392.77 1014.94 5312.15 919.219 5362.12C823.496 5412.1 801.072 5536.53 706.217 5576.27C611.362 5616 549.811 5514.77 446.696 5569.36C343.581 5623.96 390.732 5699.78 266.383 5762.15C142.035 5824.51 70.3884 5739.67 -48.9576 5827.89C-168.304 5916.1 -160.331 6147.17 -160.331 6147.17" stroke="#4C40F7" stroke-width="15"/>
<path opacity="0.05" d="M1710.11 336.383C1702.45 345.637 1594.03 205.875 1422.69 247.854C1251.35 289.833 1309.66 388.89 1204.27 443.42C1098.88 497.95 1014.94 417.332 919.219 467.307C823.496 517.282 801.072 641.715 706.217 681.45C611.362 721.185 549.811 619.951 446.696 674.547C343.581 729.143 390.732 804.965 266.383 867.329C142.035 929.694 70.3884 844.853 -48.9576 933.069C-168.304 1021.29 -160.331 1252.36 -160.331 1252.36" stroke="#4C40F7" stroke-width="15"/>
<path opacity="0.05" d="M1710.11 1574.87C1702.45 1584.12 1594.03 1444.36 1422.69 1486.34C1251.35 1528.32 1309.66 1627.38 1204.27 1681.91C1098.88 1736.44 1014.94 1655.82 919.219 1705.79C823.496 1755.77 801.072 1880.2 706.217 1919.94C611.362 1959.67 549.811 1858.44 446.696 1913.03C343.581 1967.63 390.732 2043.45 266.383 2105.82C142.035 2168.18 70.3884 2083.34 -48.9576 2171.56C-168.304 2259.77 -160.331 2490.84 -160.331 2490.84" stroke="#4C40F7" stroke-width="15"/>
</g>
<defs>
<clipPath id="clip0_289_32">
<rect width="1440" height="11053" fill="white"/>
</clipPath>
</defs>
</svg>
